<svg width="48" height="48" viewBox="0 0 48 48" fill="none" xmlns="http://www.w3.org/2000/svg">
<path d="M0 8C0 3.58172 3.58172 0 8 0H40C44.4183 0 48 3.58172 48 8V40C48 44.4183 44.4183 48 40 48H8C3.58172 48 0 44.4183 0 40V8Z" fill="#FAE8E1"/>
<path d="M25.3125 20H32.6875L25.3125 12.6875V20ZM29.3125 26.6875V24H18.6875V26.6875H29.3125ZM29.3125 32V29.3125H18.6875V32H29.3125ZM26.6875 10.6875L34.6875 18.6875V34.6875C34.6875 35.3958 34.4167 36.0208 33.875 36.5625C33.3333 37.0625 32.7083 37.3125 32 37.3125H16C15.2917 37.3125 14.6667 37.0625 14.125 36.5625C13.5833 36.0208 13.3125 35.3958 13.3125 34.6875L13.375 13.3125C13.375 12.6042 13.625 12 14.125 11.5C14.6667 10.9583 15.2917 10.6875 16 10.6875H26.6875Z" fill="#CF6F49"/>
</svg>
