<svg width="48" height="48" viewBox="0 0 48 48" fill="none" xmlns="http://www.w3.org/2000/svg">
<path d="M0 8C0 3.58172 3.58172 0 8 0H40C44.4183 0 48 3.58172 48 8V40C48 44.4183 44.4183 48 40 48H8C3.58172 48 0 44.4183 0 40V8Z" fill="#FAE8E1"/>
<path d="M12 37.3125V10.6875L14 12.6875L16 10.6875L18 12.6875L20 10.6875L22 12.6875L24 10.6875L26 12.6875L28 10.6875L30 12.6875L32 10.6875L34 12.6875L36 10.6875V37.3125L34 35.3125L32 37.3125L30 35.3125L28 37.3125L26 35.3125L24 37.3125L22 35.3125L20 37.3125L18 35.3125L16 37.3125L14 35.3125L12 37.3125ZM32 20V17.3125H16V20H32ZM32 25.3125V22.6875H16V25.3125H32ZM32 30.6875V28H16V30.6875H32Z" fill="#CF6F49"/>
</svg>
