<svg width="48" height="48" viewBox="0 0 48 48" fill="none" xmlns="http://www.w3.org/2000/svg">
<path d="M0 8C0 3.58172 3.58172 0 8 0H40C44.4183 0 48 3.58172 48 8V40C48 44.4183 44.4183 48 40 48H8C3.58172 48 0 44.4183 0 40V8Z" fill="#FAE8E1"/>
<path d="M36 21.3125H24.875C24.5 20.2708 23.9375 19.3542 23.1875 18.5625C22.4792 17.7708 21.6042 17.1458 20.5625 16.6875C19.5625 16.2292 18.4792 16 17.3125 16C15.8542 16 14.5208 16.375 13.3125 17.125C12.1042 17.8333 11.125 18.7917 10.375 20C9.66667 21.2083 9.3125 22.5417 9.3125 24C9.3125 25.4583 9.66667 26.7917 10.375 28C11.125 29.2083 12.1042 30.1875 13.3125 30.9375C14.5208 31.6458 15.8542 32 17.3125 32C18.4792 32 19.5625 31.7708 20.5625 31.3125C21.6042 30.8542 22.4792 30.2292 23.1875 29.4375C23.9375 28.6458 24.5 27.7292 24.875 26.6875H25.3125L28 29.3125L30.6875 26.6875L33.3125 29.3125L38.6875 23.9375L36 21.3125ZM17.3125 28C16.6042 28 15.9375 27.8333 15.3125 27.5C14.7292 27.125 14.25 26.6458 13.875 26.0625C13.5 25.4375 13.3125 24.75 13.3125 24C13.3125 23.25 13.5 22.5833 13.875 22C14.25 21.375 14.7292 20.8958 15.3125 20.5625C15.9375 20.1875 16.6042 20 17.3125 20C18.0625 20 18.7292 20.1875 19.3125 20.5625C19.9375 20.8958 20.4167 21.375 20.75 22C21.125 22.5833 21.3125 23.25 21.3125 24C21.3125 24.75 21.125 25.4375 20.75 26.0625C20.4167 26.6458 19.9375 27.125 19.3125 27.5C18.7292 27.8333 18.0625 28 17.3125 28Z" fill="#CF6F49"/>
</svg>
