<svg width="48" height="48" viewBox="0 0 48 48" fill="none" xmlns="http://www.w3.org/2000/svg">
<path d="M0 8C0 3.58172 3.58172 0 8 0H40C44.4183 0 48 3.58172 48 8V40C48 44.4183 44.4183 48 40 48H8C3.58172 48 0 44.4183 0 40V8Z" fill="#FAE8E1"/>
<path d="M21.3125 21.3125H26.6875C26.6875 20.6042 26.4167 20 25.875 19.5C25.3333 18.9583 24.7083 18.6875 24 18.6875C23.2917 18.6875 22.6667 18.9583 22.125 19.5C21.5833 20 21.3125 20.6042 21.3125 21.3125ZM33.3125 20.375L37.3125 24H33.3125V34.6875H26.6875V26.6875H21.3125V34.6875H14.6875V24H10.6875L24 12L29.3125 16.8125V13.3125H33.3125V20.375Z" fill="#CF6F49"/>
</svg>
