<svg width="48" height="48" viewBox="0 0 48 48" fill="none" xmlns="http://www.w3.org/2000/svg">
<path d="M0 8C0 3.58172 3.58172 0 8 0H40C44.4183 0 48 3.58172 48 8V40C48 44.4183 44.4183 48 40 48H8C3.58172 48 0 44.4183 0 40V8Z" fill="#FAE8E1"/>
<path d="M33.3125 26.6875V16C33.3125 15.25 33.0417 14.625 32.5 14.125C32 13.5833 31.3958 13.3125 30.6875 13.3125H12C11.25 13.3125 10.6042 13.5833 10.0625 14.125C9.5625 14.625 9.3125 15.25 9.3125 16V26.6875C9.3125 27.3958 9.5625 28.0208 10.0625 28.5625C10.6042 29.0625 11.25 29.3125 12 29.3125H30.6875C31.3958 29.3125 32 29.0625 32.5 28.5625C33.0417 28.0208 33.3125 27.3958 33.3125 26.6875ZM21.3125 25.3125C20.6042 25.3125 19.9375 25.1458 19.3125 24.8125C18.7292 24.4375 18.25 23.9583 17.875 23.375C17.5 22.75 17.3125 22.0625 17.3125 21.3125C17.3125 20.6042 17.5 19.9583 17.875 19.375C18.25 18.75 18.7292 18.25 19.3125 17.875C19.9375 17.5 20.6042 17.3125 21.3125 17.3125C22.0625 17.3125 22.7292 17.5 23.3125 17.875C23.9375 18.25 24.4167 18.75 24.75 19.375C25.125 19.9583 25.3125 20.6042 25.3125 21.3125C25.3125 22.0625 25.125 22.75 24.75 23.375C24.4167 23.9583 23.9375 24.4375 23.3125 24.8125C22.7292 25.1458 22.0625 25.3125 21.3125 25.3125ZM38.6875 17.3125V32C38.6875 32.75 38.4167 33.3958 37.875 33.9375C37.375 34.4375 36.75 34.6875 36 34.6875H13.3125V32H36V17.3125H38.6875Z" fill="#CF6F49"/>
</svg>
